<svg viewBox="0 0 520 460" xmlns="http://www.w3.org/2000/svg">
  <g transform="translate(140.0, 0)">
    <path d="M 24 14 Q 24 8 30 8 L 210 8 Q 216 8 216 14 L 216 148 Q 216 176 120 264 Q 24 176 24 148 Z" fill="#0b0e14" stroke="#c49a6c" stroke-width="2.5" stroke-linejoin="round"></path>
    
  <polygon points="120,34 64,232 96,232 120,88" fill="#c49a6c"></polygon>
  <polygon points="120,34 176,232 144,232 120,88" fill="#c49a6c"></polygon>
  <rect x="114" y="188" width="12" height="48" fill="#c49a6c"></rect>

  </g>
  <g transform="translate(20.0, 420) scale(0.12965964343598055, -0.12965964343598055)">
  <g transform="translate(0,0)"><path d="M19 0 275 710H455L711 0H553L501 151H228L176 0ZM271 276H459L365 550Z" fill="#c49a6c"></path></g>
  <g transform="translate(750,0)"><path d="M74 0V710H385Q463 710 520.0 684.0Q577 658 608.5 610.5Q640 563 640 498Q640 433 605.5 388.0Q571 343 515 326Q620 311 629 204L647 0H492L479 180Q476 221 453.5 240.5Q431 260 377 260H226V0ZM226 387H368Q423 387 453.5 412.5Q484 438 484 485Q484 533 453.0 557.5Q422 582 363 582H226Z" fill="#c49a6c"></path></g>
  <g transform="translate(1467,0)"><path d="M370 -16Q267 -16 194.0 31.0Q121 78 81.5 161.5Q42 245 42 354Q42 461 82.0 545.0Q122 629 197.5 677.5Q273 726 379 726Q517 726 591.5 658.0Q666 590 689 477L532 470Q521 529 485.5 563.5Q450 598 380 598Q319 598 278.5 566.0Q238 534 218.5 479.0Q199 424 199 354Q199 283 218.5 228.5Q238 174 278.5 143.0Q319 112 383 112Q453 112 495.0 153.0Q537 194 542 258H380V369H691V0H597L592 101Q564 48 504.5 16.0Q445 -16 370 -16Z" fill="#c49a6c"></path></g>
  <g transform="translate(2225,0)"><path d="M388 -16Q280 -16 202.5 29.0Q125 74 83.5 157.0Q42 240 42 354Q42 468 83.5 551.5Q125 635 202.5 680.5Q280 726 388 726Q496 726 573.5 680.5Q651 635 692.5 551.5Q734 468 734 354Q734 240 692.5 157.0Q651 74 573.5 29.0Q496 -16 388 -16ZM388 112Q477 112 527.0 175.5Q577 239 577 354Q577 469 527.0 533.5Q477 598 388 598Q299 598 249.0 533.5Q199 469 199 354Q199 239 249.0 175.5Q299 112 388 112Z" fill="#c49a6c"></path></g>
  <g transform="translate(3021,0)"><path d="M355 -16Q217 -16 138.5 52.0Q60 120 52 234L205 241Q214 178 251.0 144.0Q288 110 357 110Q413 110 444.5 130.5Q476 151 476 192Q476 217 464.0 235.5Q452 254 418.0 269.5Q384 285 318 300Q227 321 171.5 347.0Q116 373 91.0 412.5Q66 452 66 512Q66 575 97.5 623.5Q129 672 189.0 699.0Q249 726 332 726Q420 726 481.0 695.0Q542 664 576.0 610.0Q610 556 618 486L466 478Q460 533 425.5 566.5Q391 600 330 600Q278 600 248.5 577.0Q219 554 219 517Q219 491 232.0 473.5Q245 456 277.0 443.0Q309 430 367 418Q466 398 523.0 367.5Q580 337 604.5 295.0Q629 253 629 199Q629 133 595.5 84.5Q562 36 500.5 10.0Q439 -16 355 -16Z" fill="#c49a6c"></path></g>
  </g>
</svg>